<svg xmlns="http://www.w3.org/2000/svg" version="1.1" xmlns:xlink="http://www.w3.org/1999/xlink" xmlns:svgjs="http://svgjs.dev/svgjs" width="100%" height="100%" viewBox="0 0 1000 600"><rect width="1000" height="600" x="0" y="0" fill="#191919"/><g><rect width="333.3333333333333" height="333.3333333333333" rx="13.333333333333334" ry="13.333333333333334" y="209.3328450121656" fill="#b88746" transform="matrix(0.6680539514456126,0,0,0.6680539514456126,-2.357124498375171,48.812035416240576)" x="197.7398681640625"/><path d="M244.51216806987617 305.0194594768674L278.9605204559235 406.22249813059585L296.47812384133255 345.36569842986154L283.80206913028275 305.0194594768674L271.7715542424809 305.0194594768674L271.7715542424809 300.9995069411873L337.2645035829047 300.9995069411873L337.2645035829047 305.0194594768674L324.7938479065248 305.0194594768674L356.2785856494794 404.9314184841L381.63069507157894 305.0194594768674L360.29853818515954 305.0194594768674L360.29853818515954 300.9995069411873L402.55205388865886 300.9995069411873L402.55205388865886 305.0194594768674L388.61426225035177 305.0194594768674L349.7351592592847 450.9994876886097L330.92647622737985 450.9994876886097L299.647137519095 355.51827928639676L272.18235231182047 450.9994876886097L253.8138100684937 450.9994876886097L200.58611736978006 305.0194594768674L190.6389355479146 305.0194594768674L190.6389355479146 300.9995069411873L259.3008985661009 300.9995069411873L259.3008985661009 305.0194594768674L244.51216806987617 305.0194594768674ZM411.4135550986982 300.9995069411873L536.061426424021 300.9995069411873L538.174102209196 354.02180060523114L534.1541496735158 354.02180060523114Q524.881850394137 325.9408182939473 517.6928841806944 315.67086656045785Q510.50391796725165 305.43025754620703 496.9769243982842 305.43025754620703L496.9769243982842 305.43025754620703L494.45345054376963 305.43025754620703L494.45345054376963 444.4560612984149L512.4111947177569 444.4560612984149L512.4111947177569 448.88681190343465L435.29852855887077 448.88681190343465L435.29852855887077 444.4560612984149L453.25627273285795 444.4560612984149L453.25627273285795 305.43025754620703L450.49805712443504 305.43025754620703Q436.9710635554676 305.43025754620703 429.5766983073552 316.111007349036Q422.18233305924286 326.7624144326264 413.3208318492034 354.02180060523114L413.3208318492034 354.02180060523114L409.3008793135233 354.02180060523114L411.4135550986982 300.9995069411873Z " fill="#191919" transform="matrix(0.6680539514456126,0,0,0.6680539514456126,-2.357124498375171,48.812035416240576)"/><path d="M653.879074876879 308.7392349091067L679.1191451018515 382.890003397974L691.9541722946185 338.3006459477244L682.6665144264855 308.7392349091067L673.8518391349705 308.7392349091067L673.8518391349705 305.79384340925895L721.8380714536574 305.79384340925895L721.8380714536574 308.7392349091067L712.7009080417213 308.7392349091067L735.769558255857 381.94403824473824L754.344873992123 308.7392349091067L738.7149497557048 308.7392349091067L738.7149497557048 305.79384340925895L769.673809316148 305.79384340925895L769.673809316148 308.7392349091067L759.4616855028073 308.7392349091067L730.9752348655938 415.69779484883264L717.1942425195912 415.69779484883264L694.2760867616519 345.7393719254421L674.1528280473638 415.69779484883264L660.6943238217821 415.69779484883264L621.6947604588347 308.7392349091067L614.4065289373137 308.7392349091067L614.4065289373137 305.79384340925895L664.7146757230341 305.79384340925895L664.7146757230341 308.7392349091067L653.879074876879 308.7392349091067ZM773.8446556735967 309.1907182776965L773.8446556735967 305.79384340925895L854.3376905307491 305.79384340925895L855.8856335087714 336.45171405730906L853.1122356731482 336.45171405730906Q846.5979756406384 320.80029061286274 839.4817377833422 314.9955044452796Q832.3654999260457 309.1907182776965 818.5845075800428 309.1907182776965L818.5845075800428 309.1907182776965L813.1667071569652 309.1907182776965L813.1667071569652 357.026456140187L818.4340131238462 357.026456140187Q825.7007454373393 357.026456140187 830.667062491827 351.54415809302515Q835.6118803382867 346.0403608378352 837.6328058929266 336.7527029697023L837.6328058929266 336.7527029697023L839.95472035996 336.7527029697023L839.95472035996 382.5675152775527L837.3103177725054 382.5675152775527Q834.5369199368824 370.9579429423864 829.8070941707035 366.0131250959268Q825.0772684045246 361.04680804143896 816.8860701458241 361.04680804143896L816.8860701458241 361.04680804143896L813.1667071569652 361.04680804143896L813.1667071569652 410.7529770023729L819.0574901566606 410.7529770023729Q833.2899658712533 410.7529770023729 843.2655983962852 402.23929062325107Q853.2627301293448 393.7256042441291 856.9820931182037 380.39609526671603L856.9820931182037 380.39609526671603L860.0779790742481 380.39609526671603L858.8310250086192 414.14985187081044L773.8446556735967 414.14985187081044L773.8446556735967 410.7529770023729L782.9818190855331 410.7529770023729L782.9818190855331 309.1907182776965L773.8446556735967 309.1907182776965ZM870.4405973437854 308.7392349091067L870.4405973437854 305.79384340925895L916.7283922282536 305.79384340925895Q938.2490994643674 305.79384340925895 948.9987034784101 311.59862957684203Q959.748307492453 317.4034157444252 959.748307492453 331.18440809042806L959.748307492453 331.18440809042806Q959.748307492453 352.3826272061205 934.2072483550874 356.5749727715972L934.2072483550874 356.5749727715972L934.2072483550874 356.8759616839904Q965.1661079155306 360.74581912904574 965.1661079155306 383.81446934318166L965.1661079155306 383.81446934318166Q965.1661079155306 400.69134764522886 952.4815751789602 407.4205997580197Q939.7970424423895 414.14985187081044 915.9544207392426 414.14985187081044L915.9544207392426 414.14985187081044L870.4405973437854 414.14985187081044L870.4405973437854 411.20446037096275L880.5022267009294 411.20446037096275L880.5022267009294 308.7392349091067L870.4405973437854 308.7392349091067ZM914.2559833050238 359.34837060722026L910.6871147723616 359.34837060722026L910.6871147723616 411.20446037096275L917.9538470858545 411.20446037096275Q926.4675334649764 411.20446037096275 929.8859075414421 405.33517657929536Q933.2827824098797 399.4443935795999 933.2827824098797 387.9853157006302L933.2827824098797 387.9853157006302L933.2827824098797 379.7941174419296Q933.2827824098797 369.56049442056093 929.111936052431 364.4651821179046Q924.9195904869543 359.34837060722026 914.2559833050238 359.34837060722026L914.2559833050238 359.34837060722026ZM915.6319326188213 308.7392349091067L910.6871147723616 308.7392349091067L910.6871147723616 356.40297910737246L914.7074666736137 356.40297910737246Q922.7696696841458 356.40297910737246 925.9300532642744 351.54415809302515Q929.111936052431 346.66383787064973 929.111936052431 336.6022085135057L929.111936052431 336.6022085135057L929.111936052431 329.3139769919846Q929.111936052431 317.87639832104304 926.3170390087798 313.29706701106085Q923.5436411731569 308.7392349091067 915.6319326188213 308.7392349091067L915.6319326188213 308.7392349091067ZM1004.1871704865059 305.79384340925895L1095.5158061898137 305.79384340925895L1097.0637491678358 344.6429123160097L1094.118357667988 344.6429123160097Q1087.303108723085 324.06817023313175 1082.035802756204 316.54344742330176Q1076.789995997351 309.0402238214999 1066.8788610964036 309.0402238214999L1066.8788610964036 309.0402238214999L1065.00842999796 309.0402238214999L1065.00842999796 410.9034714585695L1078.1659453111486 410.9034714585695L1078.1659453111486 414.14985187081044L1021.6660266133395 414.14985187081044L1021.6660266133395 410.9034714585695L1034.823541926528 410.9034714585695L1034.823541926528 309.0402238214999L1032.824115579916 309.0402238214999Q1022.9129806789686 309.0402238214999 1017.495180255891 316.8659355437231Q1012.0773798328134 324.67014805791814 1005.5846190083316 344.6429123160097L1005.5846190083316 344.6429123160097L1002.6392275084838 344.6429123160097L1004.1871704865059 305.79384340925895ZM1152.9401908328302 344.7934067722063L1152.9401908328302 344.7934067722063Q1147.2214014973595 344.7934067722063 1142.8785614756862 352.2321327499239Q1138.535721454013 359.6708587276415 1138.535721454013 369.88298254098214L1138.535721454013 369.88298254098214L1138.535721454013 411.35495482715936L1149.5433159643928 411.35495482715936L1149.5433159643928 414.14985187081044L1101.2345955252845 414.14985187081044L1101.2345955252845 411.35495482715936L1109.7482819044062 411.35495482715936L1109.7482819044062 343.2454637941841L1101.2345955252845 343.2454637941841L1101.2345955252845 340.472065958561L1138.535721454013 340.472065958561L1138.535721454013 355.3280187059682Q1140.556647008653 347.4378093596608 1146.2754363441238 343.1809661700998Q1152.0157248876226 338.9241229805389 1159.2824572011154 338.9241229805389Q1166.5706887226365 338.9241229805389 1171.1285208245906 343.0304717139033Q1175.686352926545 347.11532123923945 1175.686352926545 354.64004404906945Q1175.686352926545 362.14326765087134 1172.2894780581073 366.1636195521234Q1168.8926031896697 370.18397145337536 1161.8408629564578 370.18397145337536Q1154.7891227232456 370.18397145337536 1151.4782446869206 365.54014251930886Q1148.1458674425671 360.89631358524235 1150.618276365797 352.7051153265417L1150.618276365797 352.7051153265417L1156.1865712450713 352.7051153265417Q1160.0564286901267 344.7934067722063 1152.9401908328302 344.7934067722063ZM1200.6254342391242 329.7869595686025Q1192.4127367723954 329.7869595686025 1188.9298650718456 325.6161132111539Q1185.4469933712958 321.4237676456772 1185.4469933712958 315.2319957335886Q1185.4469933712958 309.0402238214999 1189.2308539842388 305.01987192024785Q1193.0362138052099 300.9995200189959 1200.7759286953208 300.9995200189959Q1208.5156435854315 300.9995200189959 1212.5359954866835 304.6328861757423Q1216.5563473879356 308.26625233248876 1216.5563473879356 314.9955044452796Q1216.5563473879356 321.7462557660985 1212.6864899428801 325.76660766735046Q1208.816632497825 329.7869595686025 1200.6254342391242 329.7869595686025ZM1177.234295904567 343.2454637941841L1177.234295904567 340.472065958561L1215.1588988661101 340.472065958561L1215.1588988661101 411.35495482715936L1223.8445789094567 411.35495482715936L1223.8445789094567 414.14985187081044L1177.8577729373815 414.14985187081044L1177.8577729373815 411.35495482715936L1186.3714593165034 411.35495482715936L1186.3714593165034 343.2454637941841L1177.234295904567 343.2454637941841ZM1283.44038356331 372.5058859204086Q1283.44038356331 356.5749727715972 1281.8924405852877 351.0711755164072Q1280.3444976072656 345.56737826121736 1275.851163129396 345.56737826121736Q1271.3578286515258 345.56737826121736 1267.7889601188635 351.37216442880043Q1264.2415907942295 357.1769505963836 1264.2415907942295 366.93759104113445L1264.2415907942295 366.93759104113445L1264.2415907942295 395.2735472221513Q1264.2415907942295 401.91680250282974 1266.864494173656 406.56063143689624Q1269.5088967611105 411.20446037096275 1274.6042090637668 411.20446037096275Q1279.7210205744511 411.20446037096275 1281.5699524648667 404.3892114260596Q1283.44038356331 397.59546168918456 1283.44038356331 380.56808893094075L1283.44038356331 380.56808893094075L1283.44038356331 372.5058859204086ZM1227.241453777894 340.472065958561L1263.9191026738083 340.472065958561L1263.9191026738083 352.7051153265417Q1269.9603801297003 338.9241229805389 1285.2893154537255 338.9241229805389L1285.2893154537255 338.9241229805389Q1298.5973252231104 338.9241229805389 1305.9500543687154 348.51276976106504Q1313.3027835143207 358.1229157496194 1313.3027835143207 377.62269743109306Q1313.3027835143207 397.1224791125666 1305.3265773359012 406.41013698069963Q1297.3718703655095 415.69779484883264 1281.41945800867 415.69779484883264L1281.41945800867 415.69779484883264Q1273.9807320309524 415.69779484883264 1270.2828682501217 413.8488629584172Q1266.563505261263 411.9784318599738 1264.2415907942295 408.10857441491834L1264.2415907942295 408.10857441491834L1264.2415907942295 448.20459738729807L1284.214355052321 448.20459738729807L1284.214355052321 450.99949443094914L1226.9404648655009 450.99949443094914L1226.9404648655009 448.20459738729807L1235.454151244623 448.20459738729807L1235.454151244623 343.2454637941841L1227.241453777894 343.2454637941841L1227.241453777894 340.472065958561Z " fill="#b88746" transform="matrix(0.6680539514456126,0,0,0.6680539514456126,-2.357124498375171,48.812035416240576)"/></g></svg>